<svg width="48" height="48" viewBox="0 0 48 48" fill="none" xmlns="http://www.w3.org/2000/svg">
<path fill-rule="evenodd" clip-rule="evenodd" d="M27.0429 18.2934C27.9854 18.8694 28.2825 20.1004 27.7066 21.0429C26.8814 22.3932 26.6727 23.793 26.7507 25.36C26.7904 26.1592 26.9035 26.9793 27.0435 27.8597C27.077 28.0699 27.1126 28.2871 27.149 28.5089C27.259 29.1801 27.376 29.8934 27.4602 30.5822C27.6864 32.4313 27.7485 34.5665 26.7661 36.6359C25.7655 38.7435 23.8493 40.4472 20.8276 41.8207C19.822 42.2778 18.6363 41.8332 18.1793 40.8276C17.7222 39.822 18.1668 38.6363 19.1724 38.1793C21.6507 37.0528 22.6845 35.9065 23.1526 34.9204C23.639 33.896 23.6886 32.6937 23.4898 31.0678C23.4163 30.4671 23.3187 29.8713 23.2126 29.224C23.1737 28.9865 23.1336 28.7421 23.0932 28.488C22.948 27.5753 22.8065 26.5814 22.7556 25.5587C22.6523 23.482 22.9186 21.2068 24.2934 18.9571C24.8694 18.0146 26.1004 17.7175 27.0429 18.2934Z" fill="#064E3B"/>
<path fill-rule="evenodd" clip-rule="evenodd" d="M40.0001 6C40.0001 6 40.0224 7.52912 39.9982 8.08696C39.782 13.0581 38.4497 16.1788 36.0143 18.6143C35.9621 18.6665 35.9071 18.7157 35.8494 18.7618C33.4373 20.6916 30.1979 21.7819 26.1052 21.9973C25.5685 22.0256 25.0431 21.8367 24.6472 21.4731C24.2514 21.1096 24.0186 20.6021 24.0011 20.065C23.8961 16.8334 24.7727 13.6457 26.5154 10.9222C26.5742 10.8302 26.6405 10.7433 26.7135 10.6622C27.7456 9.51539 29.0535 8.37842 30.9027 7.51347C32.7412 6.65351 35.0141 6.10931 37.926 6.00146C38.484 5.98079 40.0001 6 40.0001 6Z" fill="#065F46"/>
<path fill-rule="evenodd" clip-rule="evenodd" d="M12 40C12 38.8954 12.8954 38 14 38H34C35.1046 38 36 38.8954 36 40C36 41.1046 35.1046 42 34 42H14C12.8954 42 12 41.1046 12 40Z" fill="#022C22"/>
<path fill-rule="evenodd" clip-rule="evenodd" d="M7.64842 15.2311C13.6493 14.1596 17.4363 15.1898 20.1763 17.1825C22.9045 19.1666 24.4679 22.4792 25.4974 25.5675C25.6788 26.1118 25.6178 26.7077 25.3298 27.2039C25.0419 27.7 24.5548 28.0487 23.9922 28.1612C19.8655 28.9865 16.2971 29.0972 13.0783 27.3752C10.0536 25.8515 7.58701 22.7121 6.08665 17.7823C5.92019 17.2354 5.5 15.5 5.5 15.5C5.5 15.5 7.08562 15.3316 7.64842 15.2311Z" fill="#047857"/>
</svg>
